<?xml version="1.0" standalone="no"?>
<!DOCTYPE svg PUBLIC "-//W3C//DTD SVG 20010904//EN"
 "http://www.w3.org/TR/2001/REC-SVG-20010904/DTD/svg10.dtd">
<svg version="1.0" xmlns="http://www.w3.org/2000/svg"
 width="700.000000pt" height="700.000000pt" viewBox="0 0 700.000000 700.000000"
 preserveAspectRatio="xMidYMid meet">
<metadata>
Created by potrace 1.11, written by Peter Selinger 2001-2013
</metadata>
<g transform="translate(0.000000,700.000000) scale(0.100000,-0.100000)"
fill="#000000" stroke="none">
<path d="M4229 6996 c-2 -2 -26 -6 -54 -10 -101 -13 -133 -17 -285 -37 -205
-27 -203 -27 -290 -38 -70 -10 -121 -17 -195 -26 -36 -5 -180 -25 -215 -30
-14 -2 -50 -7 -80 -10 -30 -3 -82 -10 -115 -15 -62 -9 -120 -17 -190 -26 -22
-2 -51 -7 -65 -9 -14 -3 -47 -7 -74 -10 -58 -5 -122 -14 -156 -20 -14 -3 -49
-8 -79 -10 -30 -3 -62 -7 -70 -9 -9 -3 -41 -8 -71 -11 -30 -4 -100 -13 -155
-20 -55 -8 -122 -16 -150 -20 -27 -3 -63 -8 -80 -10 -36 -6 -83 -12 -150 -20
-27 -4 -61 -8 -75 -10 -14 -2 -97 -13 -185 -25 -219 -29 -206 -27 -335 -45
-63 -9 -133 -18 -155 -21 -22 -2 -51 -7 -65 -9 -14 -2 -50 -7 -80 -10 -30 -4
-66 -8 -80 -10 -14 -2 -63 -9 -110 -15 -47 -6 -96 -13 -110 -15 -14 -2 -52 -7
-85 -11 -33 -5 -62 -8 -65 -9 -8 -2 -134 -19 -150 -20 -8 -1 -40 -5 -71 -9
l-55 -8 0 -2939 c0 -2647 2 -2939 15 -2944 9 -2 39 -7 66 -10 28 -3 61 -8 75
-10 14 -3 48 -7 75 -10 50 -6 88 -11 135 -20 14 -2 52 -7 84 -10 32 -3 62 -7
65 -9 3 -2 33 -6 66 -10 33 -3 71 -8 85 -11 14 -2 63 -9 110 -15 47 -6 96 -13
110 -15 14 -2 45 -7 70 -10 43 -5 123 -16 260 -36 36 -5 85 -12 110 -15 25 -2
77 -9 115 -15 39 -5 88 -12 110 -14 22 -3 51 -7 65 -10 14 -3 45 -8 70 -10 25
-3 61 -7 80 -10 19 -3 69 -10 110 -15 41 -6 84 -12 95 -14 11 -2 47 -7 80 -11
33 -4 69 -9 80 -10 11 -2 58 -8 105 -14 47 -7 101 -14 120 -17 63 -9 148 -21
215 -29 53 -7 115 -16 139 -21 11 -2 46 -6 79 -9 33 -3 63 -7 66 -9 3 -2 33
-6 66 -10 33 -3 71 -8 85 -11 14 -2 63 -9 110 -15 97 -13 109 -15 205 -29 39
-5 93 -13 120 -16 28 -4 111 -15 185 -25 74 -11 158 -22 185 -26 28 -3 58 -8
69 -10 10 -2 44 -6 75 -9 60 -7 73 -9 138 -20 l43 -7 2 303 3 303 1115 1
c1107 1 1115 1 1167 22 149 59 244 157 289 293 16 52 17 196 19 2560 1 1377
-2 2529 -7 2560 -24 161 -148 300 -318 356 -52 17 -120 18 -1162 19 l-1108 0
0 293 c0 276 -1 292 -18 292 -10 0 -21 -2 -23 -4z m2292 -871 c24 -17 52 -49
65 -75 l23 -45 1 -2485 c0 -1783 -3 -2496 -11 -2525 -14 -51 -73 -110 -124
-124 -28 -8 -364 -11 -1122 -11 l-1083 0 0 1090 c0 600 2 1090 4 1090 2 0 65
-29 141 -65 75 -36 139 -65 141 -65 2 0 4 49 4 109 l0 109 -37 15 c-21 8 -86
36 -145 62 l-108 47 0 202 0 201 143 61 142 61 3 111 3 111 -137 -64 c-74 -36
-140 -65 -145 -65 -5 0 -9 461 -9 1144 l0 1144 1104 -1 1104 -2 43 -30z
m-3003 -2658 c0 -230 3 -421 6 -424 5 -5 87 -7 411 -13 l30 0 0 -101 0 -100
-280 6 c-154 4 -309 8 -345 8 l-65 2 -2 515 -1 515 46 5 c26 3 81 5 124 6 l76
0 0 -419z m-483 327 c2 -38 7 -116 10 -174 6 -112 12 -216 20 -345 7 -126 18
-326 19 -375 l1 -45 -108 0 c-60 0 -111 4 -115 9 -3 6 -7 37 -8 71 -7 216 -16
497 -18 593 -3 120 -9 146 -20 87 -8 -41 -74 -262 -163 -548 l-58 -188 -89 3
-89 3 -12 43 c-7 23 -11 42 -9 42 2 0 -3 17 -10 38 -15 39 -97 353 -139 532
l-25 105 -2 -70 c-1 -38 -3 -90 -4 -115 -2 -25 -6 -130 -11 -235 -4 -104 -8
-210 -10 -235 -2 -25 -3 -62 -4 -82 l-1 -37 -92 4 c-51 2 -97 4 -101 4 -4 1
-6 31 -3 69 6 73 13 192 31 482 13 224 26 415 28 417 1 1 65 3 141 4 114 3
141 1 147 -11 12 -22 82 -264 119 -410 39 -154 35 -136 45 -193 4 -26 11 -49
15 -52 4 -3 20 44 34 103 48 193 163 564 179 574 5 3 69 7 141 7 71 1 132 4
135 7 12 12 22 -19 26 -82z m-1130 -47 l0 -87 -70 -1 c-38 0 -95 -1 -125 -2
l-55 -2 -1 -365 c-2 -451 1 -407 -26 -404 -13 1 -58 3 -100 3 l-78 1 0 380 0
380 -114 0 c-82 0 -115 3 -118 13 -2 6 -4 46 -4 86 l1 75 30 2 c17 1 156 4
310 8 153 4 281 8 282 10 2 2 18 0 36 -3 l32 -7 0 -87z m-795 -388 l0 -459
-92 3 -93 2 -3 191 -2 190 -150 1 c-83 1 -151 -2 -151 -5 -1 -4 -3 -86 -4
-182 -2 -96 -3 -178 -4 -181 -1 -4 -40 -6 -88 -5 l-88 2 -1 429 c-1 237 0 437
2 445 3 12 21 15 91 15 l88 0 0 -170 0 -170 135 0 c74 0 143 1 152 3 16 4 18
23 20 176 l3 171 70 5 c39 3 80 3 93 1 l22 -3 0 -459z"/>
<path d="M5141 4278 c-5 -18 -35 -118 -66 -223 -31 -104 -64 -219 -75 -255
-11 -36 -73 -247 -139 -470 -66 -223 -126 -426 -134 -452 -8 -27 -12 -49 -9
-49 4 -1 51 -2 104 -3 l97 -1 22 75 c13 41 24 80 25 85 1 6 20 71 43 145 70
235 152 512 176 595 68 234 157 533 165 558 l9 27 -104 0 -103 0 -11 -32z"/>
<path d="M5476 3889 c1 -55 6 -105 10 -109 5 -5 32 -18 60 -29 28 -11 71 -29
95 -40 24 -11 169 -74 322 -139 l279 -119 -381 -163 c-264 -113 -381 -168
-382 -179 -4 -52 -2 -192 3 -196 2 -3 28 6 56 20 29 14 96 45 150 69 53 24
138 63 187 86 50 23 128 59 175 80 88 39 185 84 328 151 l82 38 0 94 0 94 -87
41 c-49 22 -117 54 -153 70 -218 99 -303 138 -365 167 -38 17 -97 44 -130 59
-33 16 -98 45 -143 67 -46 21 -89 39 -95 39 -9 0 -12 -31 -11 -101z"/>
</g>
</svg>
