<?xml version="1.0" encoding="UTF-8"?>
<svg viewBox="0 0 400.10001 223.51944" xmlns="http://www.w3.org/2000/svg">
 <g transform="matrix(1.9018 0 0 1.9018 -691 -439.89)">
  <path d="m555.9451,339.3938c0,.3367-2.9378,1.4879-3.2391,1.7875-.5909.5877 3.1264,1.8761-1.4618,2.7967-3.4619.6947-2.3191-1.809-4.8705-1.9909s-.9314,3.2103-4.0049,2.9524c-.8692-.0729-2.2148-1.5907-2.6534-1.8679-.7332-.4634-4.5985,1.1947-6.222,1.3008-1.4716.0962.3698-1.5821-2.4447-2.8953-1.4224-.6637 2.691-1.3569 3.2726-1.6396 1.3184-.6409-.6858-2.2302 1.0276-3.0199 2.6691-1.2301 5.0616,1.8329 5.1477,1.9849 .1833.3235-1.3511-1.2376-.5354-1.3611s-1.3562-1.6407 1.6705-1.6214c4.641.0296.6263,3.3403 5.3564,2.1637 1.9398-.4825-.9255-3.5122 4.0105-3.0261 3.251.3201 1.2395,1.9626 1.5847,2.2545s3.362,1.8451 3.362,2.1819z" fill="#fff" fill-rule="evenodd" stroke="#000" stroke-linecap="round" stroke-width="1.0525"/>
  <path d="m534.975,342.4497c.207.0748.4336.1031.6604.1261 .1719.0102.3492.0389.5157-.004 .2934-.1303.0264-.011-.6143.251l.0802-.0349 .1682-.0785 .8389-.3518c-1.3075.4846-.6925.3258-.4683.1786 .0421-.0276.0409-.0315.0709-.0661 .0555-.1015.0512-.2134.0521-.3209s.009-.2142-.0228-.3192c-.0451-.1153-.1517-.2079-.2407-.3063-.1317-.1246-.2313-.2655-.319-.4084-.073-.1479-.1458-.2957-.225-.442-.072-.1216-.1286-.2156-.0418-.3411 .333-.272.8263-.398 1.3-.4671 .3224-.0474.6461-.0868.9735-.1101 .3333-.0322.6686-.0497 1.0041-.064l.3114-.009-.7088.3746-.2995.005c-.3322.0105-.6634.0307-.9931.0623s-.6543.0684-.977.1209c-.0982.0174-.147.0247-.2419.0467l-.101.0258-.0826.0285 .6264-.2681c-.1379.0923-.0647.1778-.004.2872 .0729.1469.1471.2934.2165.4412 .0858.1398.1883.2754.3181.3966 .0963.104.2068.2023.2595.3239 .0395.1095.032.2211.0312.3337s.004.2314-.032.3438c-.045.0987-.1319.1467-.2533.1983l-.8311.3526 .6539-.2746c.029-.0121-.0584.0239-.0862.0373-.2085.1006.0476-.0114-.1587.075l-.8268.3467-.0787.0202c-.1742.0184-.3501-.007-.5231-.0233-.2383-.0296-.4771-.0635-.6982-.1373l.7468-.35z" fill-rule="evenodd"/>
  <path d="m416.23 242.51c-3.7515 3.3236-4.5123 1.9572-10.035 2.5331-11.838 3.3087-24.566 10.813-30.099 22.601-0.8549 3.6174-2.5895 8.7127-4.7017 13.167s-5.7067 10.476-6.6512 14.244c-3.4378 13.714-0.965 38.689 12.05 44.656 16.319 7.4813 33.577-15.657 44.116-26.653 6.2871-6.5589 9.3137-16.727 12.075-23.534-0.0562-2.4045 0.2974-2.4796 2.4228-1.1026-0.4634 6.5069-0.982 10.782 1.1505 17.441-1.2584 2.5757-4.1169 11.553-2.9436 20.512-0.0281 2.0078-5.1997 0.9701-5.3988 10.659-0.1001 4.8737 2.3971 7.3731 5.0192 7.0841 1.7393 4.8567 9.1255 3.9784 13.861 4.0499 4.6781 0.0706 17.133-0.3527 17.462-5.1394 0.5636-8.1429-1.5187-7.0811-2.1248-9.3873-0.9828-3.7391 2.5568-6.4757 0.7275-13.73-0.7363-2.9197-1.1373-6.2847 1.3243-7.9349 14.084 5.222 25.436 1.7827 29.266 0.9383-1.1806 10.824 4.8077 10.68 3.3748 19.205-0.9855 3.444-5.6083 0.036-7.2118 10.159-0.97 6.1239 7.7849 6.1109 13.226 6.0818 9.2333-0.0494 14.992-0.876 15.775-6.7588 1.2078-9.0763-2.6427-6.8381-1.6871-8.8676 2.0069-4.2621 2.2763-18.42-0.3654-25.794 5.0718-6.824 6.2144-7.316 7.0721-15.425 3.1624 2.1567 2.1268 2.4308 13.3 5.1814 4.1085 1.0114 8.2263-7.5459 3.0585-8.1352-2.0816-0.2374-12.141-1.8112-12.966-8.4779 4.1929-4.3199 3.8378-12.214 3.9992-16.759 3.3026-5.3457 1.9911-8.2252 2.4513-13.021 0.2191-2.2833 3.1913-4.8162 2.3663-6.9489-1.6184-4.1836-9.992-11.637-14.362-12.037-2.5898-0.2371-9.4877 4.3779-8.9397 7.8202 0.6841 4.297 2.351 3.8887 4.804 6.3628-2.355 1.9461-3.851-1.9974-14.451 8.9042-3.8035-2.4998-7.9493-5.0698-14.506-5.3515-19.855-0.8476-6.7918 0.4673-23.331-5.0966-3.7405-1.2583-12.264-0.4191-18.204 1.3489-3.7582 1.1186-4.7257 1.0029-10.443 1.3673-5.4302 1.5597-5.1982 0.8672-10.092 2.1332-0.7748 0.5131-2.3823-3.1439-5.8045-3.2005-0.0478-3.3252-4.0097-3.6045-4.5842-3.0955z" fill-rule="evenodd"/>
  <path d="m449.14 262.72c-6.0929 0-11.664 14.268-11.547 26.829 0.0641 6.9178 1.1497 12.556 2.8 16.895-1.3906 2.7043-2.0672 7.115-2.1223 14.268-0.0261 3.425 0.2147 6.0561 0.6514 8.0796-6.2662 1.3474-7.7802 4.4321-7.7802 7.7959 0 4.6868 1.9215 6.3943 11.631 6.283 11.924-0.1368 15.37-0.409 16.049-5.6053 0-2.4937-0.5978-4.8751-2.3588-6.5877 0.7649-2.1351 1.2129-5.2579 1.3396-9.7974-0.0499-3.3807-0.4227-6.3887-1.0402-8.9517 3.4095-6.597 5.7944-18.023 5.7944-26.456-0.6793-16.636-7.3241-22.752-13.417-22.752z" fill="#fff" fill-rule="evenodd"/>
  <path d="m431.25 251.8c11.164-1.7267 27.131-10.498 38.546-3.9043 10.804 6.2412 24.666 0.9913 31.757 8.9986 10.474 11.827 13.325 39.611 1.3585 49.925-13.296 11.461-45.088 5.0158-58.076-6.7925-7.4743-14.885-6.3263-35.82-13.585-48.227z" fill="#fff" fill-rule="evenodd" stroke="#000" stroke-linecap="round" stroke-width="1.524"/>
  <path d="m498.75 270.91s-3.9067 12.607-4.3302 17.491c-0.8267 9.5328 2.2565 17.622 1.9222 26.643-0.2207 5.9551 5.3796 13.126 4.1062 18.952-0.3923 1.7946-6.2764 0.1132-8.2649 6.368-2.2839 7.1843 4.8309 5.3599 13.784 5.8586 10.794 0.6012 11.602-4.2338 10.672-9.0806-0.7512-3.9168-2.8962-2.4526-1.6193-5.4866 1.4814-3.5201 1.0987-11.572 0.7116-15.744-1.0128-11.002-3.1993-7.6651-0.8491-10.104 2.4754-2.5688 5.4904-10.91 7.0472-15.962 1.1154-3.6193-1.7029-6.7783-0.3396-9.1699 1.1576-2.0308 2.667 0.0872 3.7359-2.0378 3.5711-7.0982 1.7335-10.618 2.5472-14.01 0.7713-3.215 3.0364-5.1571 3.3962-9.8491 0.1834-2.3911-0.3047-3.2375 0.0849-5.6038 0.193-1.1724 2.0572-5.1494 1.1038-5.8586-1.548-1.1515-8.7739 4.5003-13.681 5.4123-4.5913 0.8534-6.2323 1.2648-9.8253 4.1105-7.186 5.6914-8.3338 10.94-8.3338 10.94" fill="#fff" fill-rule="evenodd"/>
  <path d="m520.07 244.08s-6.0567-1.2852-4.3814-5.5211c2.7463-4.5463 6.6638-3.9896 10.104-2.717 2.643 0.9777 6.9785 4.7259 7.3869 7.5142 0.2457 1.6779-2.25 5.7736-2.25 5.7736" fill="#fff" fill-rule="evenodd"/>
  <path d="m524.31 250.23s-3.7879-2.1675-5.3229-2.1597c-0.28 1e-3 2.5125-2.536 2.3088-3.5291-0.234-1.1403 6.2831-0.6368 6.2831-0.6368" fill="#fff" fill-rule="evenodd" stroke="#000" stroke-linecap="round" stroke-width="2.024"/>
  <path d="m515.3 276.58s7.9201 15.762 20.857 17.475c3.5709 0.4729 8.7695-3.286 0.4607-4.3785-11.694-1.5377-17.221-15.61-17.221-15.61" fill="#fff" fill-rule="evenodd" stroke="#000" stroke-linecap="round" stroke-width="1.524"/>
  <path d="m537.45 329.27c-2.3936-6.9405 1.0337-26.382-9.092-32.922" fill="none" stroke="#000" stroke-linecap="round" stroke-width=".8237"/>
  <path d="m545.43 333.82c-3.8335-14.724-4.3593-25.586-13.178-33.769" fill="none" stroke="#000" stroke-linecap="round" stroke-width=".8237"/>
  <path d="m548.43 326.08c-2.4649-14.188-13.102-21.389-16.333-28.64" fill="none" stroke="#000" stroke-linecap="round" stroke-width=".8237"/>
  <path d="m531.07 327.12c1.7777 1.5803-1.7325-5.2965-3.9625-6.1239-2.6855-0.9964-5.3177 3.1702-1.6811 3.3621 3.5792 0.1889 3.9172 1.2272 5.6436 2.7618z" fill="#fff" fill-rule="evenodd" stroke="#000" stroke-linecap="round" stroke-width="1.316"/>
  <path d="m530.7187,336.7996c1.597.2446-3.0432-3.378-4.5894-2.7195-1.862.793-1.6511,5.8692.4122,3.8279 2.0307-2.009 2.6264-1.3459 4.1772-1.1084z" fill="#fff" fill-rule="evenodd" stroke="#000" stroke-linecap="round" stroke-width="1.314"/>
  <path d="m554.9746,321.2378c-1.6277.3149 3.0079-3.1316 4.6127-2.6581 1.9326.5702 1.8803,4.9968-.2987,3.3543-2.1446-1.6166-2.7333-1.0019-4.314-.6962z" fill="#fff" fill-rule="evenodd" stroke="#000" stroke-linecap="round" stroke-width="1.413"/>
  <path d="m556.0104,333.6735c-1.6439-.6319 4.0821-.6375 5.3817.5404 1.5651,1.4186-.2965,4.5249-1.6518,2.2178-1.3339-2.2707-2.1336-2.1447-3.7299-2.7582z" fill="#fff" fill-rule="evenodd" stroke="#000" stroke-linecap="round" stroke-width="1.012"/>
  <path d="m542.0503,340.9533c.1701.1614.3329.3293.4856.5072 .1681.2039.3259.4157.4262.6614 .0759.2121.0751.4403.081.6628-.0112.1999.0288.3849.122.5606l.0454.0434c.0377.0171.0801-.0177.1074-.0326-.2271.1246-.4503.2566-.6812.3739-.0399.0203.0721-.0532.1064-.082l.1084-.0979c.2836-.2728.483-.6094.6685-.9523 .1755-.3327.3016-.6892.4187-1.0459 .0796-.2382.1647-.4733.2118-.7205 .018-.1674.0625-.3296.1288-.4841 .2107-.4123.581-.4974 1.0128-.7485 .2192-.0371.4445-.0221.666-.021 .3488.0108.6994-.0206 1.046.0272 .1878.0313.3676.0971.5506.1485 .1874.05.3766.0858.5695.1052 .0299.002.0597.005.0897.006 .0687.004.0963.0112.162-.0136l.0749-.0404c-.7261.4131-.8887.5242-.6003.3318 .13-.0989.2438-.2168.3583-.3327l.8068-.3349c-.1146.117-.2274.2363-.3506.3443-.2922.2382-.6173.498-.9929.5571-.0873.0137-.175-.005-.2618-.0119-.1958-.0256-.3889-.0647-.5797-.1158-.1766-.0522-.3517-.1135-.5335-.1446-.3414-.0435-.6867-.0214-1.03-.0239-.2192.004-.4601-.0152-.6651.0738l.7074-.4156-.049.0297c-.074.0555-.1283.1402-.1804.2147-.0759.1451-.1231.3037-.1432.4663-.0489.2541-.1324.4959-.2224.738-.1203.3622-.2513.7234-.4237,1.0643-.1825.3444-.3716.6851-.6413.971-.3554.344-.3608.3203-1.0337.6651-.0828.0424-.1724-.0519-.211-.1075-.0979-.1876-.1509-.3852-.1371-.5988-.002-.2129-.003-.4299-.0666-.6352-.0901-.2394-.2391-.4455-.4046-.6394-.154-.1723-.3145-.3416-.4969-.4842l.751-.4697z" fill-rule="evenodd"/>
  <path d="m549.7902,342.5296c-.1136-.0691-.2346-.135-.3621-.1964-.199-.0808-.3221-.1917-.4188-.3141-.1279-.2168-.1277-.448-.1389-.6735 .004-.2992.1173-.591.2826-.8747 .1645-.2718.405-.5254.7214-.7528 .358-.2113.8424-.3901 1.3703-.4281 .189-.007.3786-.003.5679-.001 .1561-.001.3139.0123.4632-.017 .2813-.115-.0426.0194-.6406.1934l.0485-.0278c.0528-.0395.0674-.0869.0847-.1336 .0574-.1492-.0222-.2867-.1258-.4235-.1425-.1619-.3404-.3066-.5556-.4414-.1412-.0845-.2778-.1712-.4159-.2571l-.0736-.0574 .7658-.2434c.0374.0347.0164.0173.0634.0522 .1296.089.2615.1767.3978.2627 .2133.1412.4173.29.5674.4542 .1122.142.2061.2864.1621.4434-.0715.2959-.3136.342-.979.4721-.1558.0137-.3135.004-.4707.004-.1865-.002-.3744-.005-.5598.009-.0772.009-.105.01-.18.0262l-.0937.024c1.2035-.4023.6035-.215.3839-.0931-.1072.0706-.1689.1079-.2644.1861-.2099.172-.3658.3628-.4916.5572-.1682.2793-.2761.5619-.2823.8572 .0124.2183.0165.4422.1449.6513 .095.1161.2214.2163.4102.2929 .132.0637.2558.1324.3816.1997l-.7626.2496z" fill-rule="evenodd"/>
  <path d="m542.0614,340.6797c.0115-.1732.0127-.3467.0148-.52 .006-.2912.0147-.5824-.0168-.873-.0308-.2701-.0981-.537-.1603-.8041-.0374-.1529-.0594-.3073-.0709-.4622-.005-.0675-.004-.1351-.004-.2026l.7856-.2865c-3e-005,.0671.0006.1342.001.2013 .004.1549.0166.3096.0466.4631 .0519.2706.1218.5396.1514.8122 .034.2906.0267.5816.0318.873 .002.1697.003.3397.0148.5092l-.794.2896z" fill-rule="evenodd"/>
  <path d="m441.92 291.79c0.0641 6.9201 0.8371 13.836 2.4884 18.176-1.3885 2.7048-2.062 7.1153-2.1171 14.263-0.0261 3.425 0.2147 6.0561 0.6514 8.0796-6.2705 1.3469-7.7854 4.4312-7.7854 7.7959 0 4.6868 1.9267 6.3943 11.636 6.283 11.924-0.1368 15.364-0.409 16.044-5.6053 0-2.4949-0.5906-4.875-2.3535-6.5877 0.7645-2.1351 1.2077-5.2592 1.3343-9.7974-0.0499-3.3807-0.4175-6.3887-1.0349-8.9517 3.4095-6.597 5.7892-18.023 5.7892-26.456-0.6793-16.636-7.3188-22.752-13.412-22.752" fill="#fff" fill-rule="evenodd" stroke="#000" stroke-linecap="round" stroke-width="2.024"/>
  <path d="m430.74 254.83s-12.506-16.454-38.664 1.2008c-6.1465 4.1485-12.295 11.455-14.645 18.115-2.789 7.9067-3.5709 10.659-6.6413 15.858-6.9394 11.75-4.4989 44.377 7.8085 47.861 15.386 4.355 32.836-19.832 41.985-31.261 13.188-16.473 11.392-43.146 11.392-43.146" fill="#fff" fill-rule="evenodd"/>
  <path d="m428.82 250.75c6.7782 5.2073 8.8599 20.039 4.0826 33.381-0.4882 1.3633 4.2578 1.8218 4.803 0.4803 4.2828-10.537 3.3637-25.227-2.1614-35.062-1.2018-2.1393-8.6701-0.2941-6.7242 1.2008z" fill-rule="evenodd"/>
  <path d="m444.19 274.77 2.8818 41.546" fill="#fff" fill-opacity=".571" fill-rule="evenodd"/>
  <path d="m393.28 284.61s-1.3283 5.7693 3.6023 4.0826c2.9981-1.0256 1.6172-8.9506 2.834-12.762s3.5301-2.668 3.5301-2.668" fill="none" stroke="#000" stroke-linecap="round" stroke-width="2.024"/>
  <path d="m403.313,281.1894c0,1.0274-.8472,1.8612-1.8912,1.8612s-1.8912-.8338-1.8912-1.8612 .8473-1.8612 1.8912-1.8612 1.8912.8338 1.8912,1.8612z" fill-rule="evenodd" stroke="#000" stroke-linecap="round" stroke-width="1.736"/>
  <path d="m383.28 339.48c7.0722-3.6185 10.393-12.508 1.5855-18.573-3.4943-1.5932-13.151-1.1281-14.949 2.2651-2.1452 4.0477 2.5192 14.846 13.364 16.308z" fill-rule="evenodd"/>
  <path d="m419.9 308.69c5.5386-18.137-8.6975-24.434-5.7736-26.83 3.4585 2.3565 8.468 1.5118 10.019 1.6981 2.1797 4.1766 0.4869 17.691-4.2453 25.132z" fill="none" stroke="#000" stroke-linecap="round" stroke-width="1.524"/>
  <path d="m416.2689,285.9562c-.445.4555.3972,1.5497.9977,1.7618 .6729.2377.3355-.8678 1.6132-1.1675 1.795-.5667-2.0582-1.16-2.6109-.5943z" fill-rule="evenodd"/>
  <path d="m425.4537,288.7179c.445.4555-.3972,1.5497-.9977,1.7618-.6729.2377-.3355-.8678-1.6132-1.1675-1.795-.5667 2.0582-1.16 2.6109-.5943z" fill-rule="evenodd"/>
  <path d="m424.7745,295.4255c.445.4555-.3972,1.5497-.9977,1.7618-.6729.2377-.3355-.8678-1.6132-1.1675-1.795-.5667 2.0582-1.16 2.6109-.5944z" fill-rule="evenodd"/>
  <path d="m419.438,292.5386c-.445.4555.3972,1.5497.9977,1.7618 .6729.2377.3355-.8678 1.6132-1.1675 1.795-.5667-2.0582-1.16-2.6109-.5943z" fill-rule="evenodd"/>
  <path d="m408.33 264.62s0.9683-8.2081 5.6887-14.264c7.5524-9.6896 5.9458-0.599 6.6227 0.5094 1.886 3.0881-0.934 11.887-0.934 11.887" fill="#fff" fill-rule="evenodd" stroke="#000" stroke-linecap="round" stroke-width="2.024"/>
  <path d="m412.66 263.18c1.6056-5.2718 3.2915-10.463 7.5567-13.076" fill="#fff" fill-rule="evenodd" stroke="#000" stroke-linecap="round" stroke-width="2.024"/>
  <path d="m494.44 275.37c-7.1706 4.1231-5.0902 22.94 0.7143 34.688" fill="none" stroke="#000" stroke-linecap="round" stroke-width="2.024"/>
  <path d="m519.0492,257.3355c-.6512-.0339-2.4787,1.2152.5366.7492 1.9042-.2943 8.2215,2.3553 8.767,5.7055 .5578-1.2187.7252-1.3182 1.2266-2.6238-4.3639.3399-3.9147-3.4868-10.5302-3.8309z" fill-rule="evenodd" stroke="#000" stroke-linecap="round" stroke-width="1.524"/>
 </g>
</svg>
